# xmcd
#
# Track frame offsets:
#	150
#	10259
#	21310
#	33708
#	47254
#	55212
#	64575
#	76045
#	85660
#	97061
#	106165
#
# Disc length: 1542 seconds
#
# Revision: 1
# Processed by: cddbd v1.5.1PL0 Copyright (c) Steve Scherf et al.
# Submitted via: dBpowerAMP V4.0
#
DISCID=7b06040b
DTITLE=Merle Haggard and The Strangers - Instrumental Sounds of the Strangers
DYEAR=1969
DGENRE=Country
TTITLE0=Mama Tried
TTITLE1=Don't Tell Me
TTITLE2=Leaving Phoenix
TTITLE3=Waltz of Enchantment
TTITLE4=Tennessee Flat Top Box
TTITLE5=Poppin' Corn
TTITLE6=Hammin' it Up
TTITLE7=Whooper Snooper
TTITLE8=Terri
TTITLE9=A Hop and A Skip
TTITLE10=Somebody Stole My Gal
EXTD=+Sound Man+
EXTT0=
EXTT1=
EXTT2=
EXTT3=
EXTT4=
EXTT5=
EXTT6=
EXTT7=
EXTT8=
EXTT9=
EXTT10=
PLAYORDER=
